<svg xmlns="http://www.w3.org/2000/svg" width="14" height="11.355" viewBox="0 0 14 11.355"><defs><style>.a{fill:#2e7df2;fill-rule:evenodd;}</style></defs><path class="a" d="M42.433,13.356A8.094,8.094,0,0,0,50.6,5.189V4.8A6.322,6.322,0,0,0,52,3.322a6.457,6.457,0,0,1-1.633.467,3.026,3.026,0,0,0,1.244-1.556,7.134,7.134,0,0,1-1.789.7A2.778,2.778,0,0,0,47.722,2a2.922,2.922,0,0,0-2.878,2.878,1.516,1.516,0,0,0,.078.622,8.041,8.041,0,0,1-5.911-3.033,2.979,2.979,0,0,0-.389,1.478,3.09,3.09,0,0,0,1.244,2.411,2.622,2.622,0,0,1-1.322-.389h0a2.843,2.843,0,0,0,2.333,2.8,2.4,2.4,0,0,1-.778.078,1.324,1.324,0,0,1-.544-.078,2.947,2.947,0,0,0,2.722,2.022A5.872,5.872,0,0,1,38.7,12.033a2.153,2.153,0,0,1-.7-.078,7.341,7.341,0,0,0,4.433,1.4" transform="translate(-38 -2)"/></svg>