<svg xmlns="http://www.w3.org/2000/svg" width="13.2" height="11" viewBox="0 0 13.2 11"><defs><style>.a{fill:#2e7df2;}</style></defs><path class="a" d="M13.2,7.378a1.459,1.459,0,0,0-2.473-1.044A7.533,7.533,0,0,0,6.893,5.209l.816-2.568,2.209.518,0,.032A1.2,1.2,0,1,0,10,2.758L7.617,2.2a.2.2,0,0,0-.242.137L6.465,5.2A7.621,7.621,0,0,0,2.45,6.315,1.453,1.453,0,1,0,.724,8.628,2.594,2.594,0,0,0,.677,9.1c0,2.151,2.644,3.9,5.9,3.9s5.9-1.75,5.9-3.9a2.611,2.611,0,0,0-.041-.446A1.448,1.448,0,0,0,13.2,7.378Zm-9.473,1a.87.87,0,1,1,.87.866A.869.869,0,0,1,3.727,8.377ZM8.71,10.945a2.869,2.869,0,0,1-2.1.648l-.007,0-.007,0a2.867,2.867,0,0,1-2.1-.648.2.2,0,0,1,.289-.288,2.5,2.5,0,0,0,1.814.529l.007,0,.007,0a2.5,2.5,0,0,0,1.814-.529.2.2,0,0,1,.289.288Zm-.1-1.7a.866.866,0,1,1,.87-.866.868.868,0,0,1-.87.866Z" transform="translate(0 -2)"/></svg>