<svg xmlns="http://www.w3.org/2000/svg" width="13.923" height="11.053" viewBox="0 0 13.923 11.053"><defs><style>.a{fill:#2e7df2;fill-rule:evenodd;}</style></defs><path class="a" d="M1.651,5.255A.539.539,0,0,0,1.475,4.8L.176,3.234V3H4.212l3.12,6.842L10.075,3h3.848v.234L12.811,4.3a.326.326,0,0,0-.124.312v7.83a.325.325,0,0,0,.124.312L13.9,13.819v.234H8.437v-.234l1.125-1.092c.11-.11.11-.143.11-.312V6.087L6.545,14.027H6.123L2.483,6.087v5.322a.734.734,0,0,0,.2.61l1.462,1.774v.234H0v-.234l1.462-1.774a.707.707,0,0,0,.189-.61V5.255Z" transform="translate(0 -3)"/></svg>