<svg xmlns="http://www.w3.org/2000/svg" width="67.364" height="41.262" viewBox="0 0 67.364 41.262"><defs><style>.a{fill:#2e7df2;}</style></defs><g transform="translate(-90 -3524)"><g transform="translate(90 3524)"><path class="a" d="M46.293,33.743A13.137,13.137,0,1,1,59.15,19.7v.272h7.41v-.317A20.417,20.417,0,0,0,46.293,0c-.491,0-.982,0-1.473.045H0V6.794H12.946v33.97h7.232V6.794H31.249a20.751,20.751,0,0,0,1.384,29.123,20.193,20.193,0,0,0,13.66,5.345H47.32V33.743Z"/><path class="a" d="M123.961,59.6,120.3,64.265l10,8.424,3.661-4.575Z" transform="translate(-66.596 -32.606)"/></g></g></svg>